<svg xmlns="http://www.w3.org/2000/svg" xmlns:xlink="http://www.w3.org/1999/xlink" version="1.1" width="256" height="256" viewBox="0 0 256 256" xml:space="preserve">

<defs>
</defs>
<g style="stroke: none; stroke-width: 0; stroke-dasharray: none; stroke-linecap: butt; stroke-linejoin: miter; stroke-miterlimit: 10; fill: none; fill-rule: nonzero; opacity: 1;" transform="translate(1.4065934065934016 1.4065934065934016) scale(2.81 2.81)" >
	<path d="M 77.58 45.479 l 5.571 -5.57 C 87.568 35.492 90 29.62 90 23.373 s -2.432 -12.119 -6.849 -16.536 c -9.116 -9.116 -23.954 -9.117 -33.071 0 L 28.459 28.459 L 6.838 50.08 c -9.117 9.117 -9.117 23.953 0 33.071 C 11.255 87.568 17.127 90 23.373 90 s 12.119 -2.432 16.535 -6.849 l 5.571 -5.571 C 49.494 84.971 57.326 90 66.311 90 C 79.374 90 90 79.374 90 66.311 C 90 57.326 84.971 49.493 77.58 45.479 z M 54.323 11.081 c 6.778 -6.778 17.807 -6.778 24.585 0 c 3.284 3.283 5.091 7.648 5.091 12.292 s -1.808 9.009 -5.091 12.293 l -7.513 7.513 c -1.639 -0.36 -3.338 -0.555 -5.084 -0.555 c -5.451 0 -10.475 1.856 -14.482 4.963 L 34.824 30.58 L 54.323 11.081 z M 48.624 66.311 c 0 -8.729 6.361 -15.982 14.687 -17.414 v 34.827 C 54.985 82.293 48.624 75.04 48.624 66.311 z" style="stroke: none; stroke-width: 1; stroke-dasharray: none; stroke-linecap: butt; stroke-linejoin: miter; stroke-miterlimit: 10; fill: rgb(255,255,255); fill-rule: nonzero; opacity: 1;" transform=" matrix(1 0 0 1 0 0) " stroke-linecap="round" />
	<path d="M 73.751 20.049 c -0.768 0 -1.536 -0.293 -2.121 -0.879 c -1.437 -1.437 -3.347 -2.228 -5.38 -2.228 c -2.032 0 -3.943 0.792 -5.381 2.228 c -1.172 1.172 -3.071 1.172 -4.243 0 c -1.172 -1.172 -1.172 -3.071 0 -4.243 c 2.571 -2.571 5.988 -3.986 9.623 -3.986 s 7.053 1.416 9.622 3.986 c 1.172 1.172 1.172 3.072 0 4.243 C 75.286 19.756 74.519 20.049 73.751 20.049 z" style="stroke: none; stroke-width: 1; stroke-dasharray: none; stroke-linecap: butt; stroke-linejoin: miter; stroke-miterlimit: 10; fill: rgb(255,255,255); fill-rule: nonzero; opacity: 1;" transform=" matrix(1 0 0 1 0 0) " stroke-linecap="round" />
</g>
</svg>